<svg width="19" height="18" viewBox="0 0 19 18" fill="none" xmlns="http://www.w3.org/2000/svg">
<path d="M7.25 1.5C7.66421 1.5 8 1.83579 8 2.25V3H11V2.25C11 1.83579 11.3358 1.5 11.75 1.5C12.1642 1.5 12.5 1.83579 12.5 2.25V3H14.75C15.5784 3 16.25 3.67157 16.25 4.5V14.25C16.25 15.0784 15.5784 15.75 14.75 15.75H4.25C3.42157 15.75 2.75 15.0784 2.75 14.25V4.5C2.75 3.67157 3.42157 3 4.25 3H6.5V2.25C6.5 1.83579 6.83579 1.5 7.25 1.5ZM6.5 4.5H4.25V6.75H14.75V4.5H12.5V5.25C12.5 5.66421 12.1642 6 11.75 6C11.3358 6 11 5.66421 11 5.25V4.5H8V5.25C8 5.66421 7.66421 6 7.25 6C6.83579 6 6.5 5.66421 6.5 5.25V4.5ZM14.75 8.25H4.25V14.25H14.75V8.25Z" fill="white"/>
</svg>
