<svg width="161" height="161" viewBox="0 0 161 161" fill="none" xmlns="http://www.w3.org/2000/svg">
<path d="M10.2591 121.073L9.61938 119.928L17.296 115.478L17.9357 116.622L10.2591 121.073Z" fill="#42426C"/>
<path d="M40.3258 150.446L39.1743 149.81L43.6523 142.181L44.8038 142.817L40.3258 150.446Z" fill="#645D96"/>
<path d="M80.9556 160.401L79.6402 160.391L79.9354 151.55L81.2508 151.559L80.9556 160.401Z" fill="#645D96"/>
<path d="M80.9556 9.40043L79.6402 9.39108L79.9354 0.549406L81.2508 0.558758L80.9556 9.40043Z" fill="#645D96"/>
<path d="M45.7868 17.9245L44.6724 18.6232L40.1716 11.007L41.286 10.3083L45.7868 17.9245Z" fill="#645D96"/>
<path d="M19.3136 43.8974L18.6194 45.0146L11.2304 40.15L11.9246 39.0327L19.3136 43.8974Z" fill="#645D96"/>
<path d="M9.39945 79.9678L9.36987 81.2829L0.533781 80.8517L0.563369 79.5367L9.39945 79.9678Z" fill="#645D96"/>
<path d="M121.71 149.048L120.578 149.719L116.268 141.993L117.4 141.322L121.71 149.048Z" fill="#645D96"/>
<path d="M150.272 119.524L149.629 120.672L142.025 116.152L142.667 115.004L150.272 119.524Z" fill="#645D96"/>
<path d="M160.399 79.9704L160.368 81.2853L151.533 80.8439L151.564 79.5289L160.399 79.9704Z" fill="#645D96"/>
<path d="M148.946 39.1886L149.64 40.306L142.005 44.7739L141.311 43.6564L148.946 39.1886Z" fill="#645D96"/>
<path d="M119.954 11.2622L121.067 11.9643L116.15 19.3186L115.037 18.6164L119.954 11.2622Z" fill="#645D96"/>
<path d="M76.4058 7.90138L76.15 2.43356L76.7897 2.3064L77.0456 7.90138H76.4058Z" fill="white"/>
<path d="M72.5675 8.28269L72.0557 2.68771H72.6954L73.2072 8.15554L72.5675 8.28269Z" fill="white"/>
<path d="M68.8572 8.79153L67.9615 3.3237L68.6013 3.19654L69.4969 8.66436L68.8572 8.79153Z" fill="white"/>
<path d="M65.1467 9.42725L63.8673 4.08657L64.507 3.95942L65.6585 9.30008L65.1467 9.42725Z" fill="white"/>
<path d="M61.4364 10.4446L59.9011 4.97673L60.5408 4.84956L62.0761 10.1902L61.4364 10.4446Z" fill="white"/>
<path d="M57.7261 11.4618L56.0628 6.12116L56.7025 5.994L58.3658 11.3347L57.7261 11.4618Z" fill="white"/>
<path d="M54.1436 12.7335L52.2245 7.52003L52.7363 7.26571L54.7834 12.4792L54.1436 12.7335Z" fill="white"/>
<path d="M50.6891 14.259L48.3862 9.17267L49.0259 8.7912L51.3289 14.0047L50.6891 14.259Z" fill="white"/>
<path d="M47.2347 15.7848L44.6758 10.8256L45.3155 10.5712L47.8744 15.5304L47.2347 15.7848Z" fill="white"/>
<path d="M40.7096 19.5999L37.6389 15.0221L38.1507 14.6407L41.2213 19.3455L40.7096 19.5999Z" fill="white"/>
<path d="M37.639 21.7613L34.3124 17.3108L34.8242 16.9293L38.1507 21.3798L37.639 21.7613Z" fill="white"/>
<path d="M34.5683 24.1775L30.9859 19.7269L31.4977 19.3454L35.0801 23.6688L34.5683 24.1775Z" fill="white"/>
<path d="M31.7535 26.5933L27.9152 22.3971L28.427 22.0156L32.1374 26.2119L31.7535 26.5933Z" fill="white"/>
<path d="M28.9388 29.1367L24.9726 25.1948L25.4844 24.8133L29.4506 28.7552L28.9388 29.1367Z" fill="white"/>
<path d="M26.3799 31.934L22.1578 28.2464L22.5416 27.7378L26.7637 31.4254L26.3799 31.934Z" fill="white"/>
<path d="M23.949 34.8589L19.471 31.2984L19.9828 30.7898L24.3329 34.3503L23.949 34.8589Z" fill="white"/>
<path d="M21.646 37.7832L17.04 34.6042L17.4239 34.0956L21.9019 37.2746L21.646 37.7832Z" fill="white"/>
<path d="M19.471 40.9623L14.7371 37.9105L15.121 37.4019L19.8549 40.4537L19.471 40.9623Z" fill="white"/>
<path d="M15.6326 47.5748L10.6428 45.0316L11.0266 44.3958L16.0164 46.939L15.6326 47.5748Z" fill="white"/>
<path d="M14.0974 50.8806L8.97968 48.7189L9.23557 48.0831L14.3533 50.372L14.0974 50.8806Z" fill="white"/>
<path d="M12.562 54.4413L7.44427 52.4068L7.57222 51.771L12.8179 53.8055L12.562 54.4413Z" fill="white"/>
<path d="M11.4105 58.0017L6.03693 56.2215L6.16487 55.7129L11.5385 57.3659L11.4105 58.0017Z" fill="white"/>
<path d="M10.2591 61.5621L4.88544 60.1633L5.01338 59.5275L10.515 61.0534L10.2591 61.5621Z" fill="white"/>
<path d="M9.49144 65.2501L3.98987 64.1057L4.11782 63.4699L9.61938 64.6143L9.49144 65.2501Z" fill="white"/>
<path d="M8.7238 69.0645L3.22223 68.1744L3.35017 67.5386L8.85174 68.4287L8.7238 69.0645Z" fill="white"/>
<path d="M8.3399 72.7523L2.71039 72.1165V71.4807L8.3399 72.1165V72.7523Z" fill="white"/>
<path d="M7.95604 76.5672L2.45447 76.1857V75.5499L8.08398 75.9314L7.95604 76.5672Z" fill="white"/>
<path d="M2.45447 84.3235V83.6877L7.95604 83.4334L8.08398 84.0692L2.45447 84.3235Z" fill="white"/>
<path d="M2.71039 88.3927V87.7569L8.3399 87.2483V87.8841L2.71039 88.3927Z" fill="white"/>
<path d="M3.35017 92.4621L3.22223 91.8263L8.7238 90.9362L8.85174 91.572L3.35017 92.4621Z" fill="white"/>
<path d="M4.11782 96.4037L3.98987 95.7679L9.49144 94.6235L9.61938 95.2593L4.11782 96.4037Z" fill="white"/>
<path d="M5.01338 100.345L4.88544 99.8368L10.2591 98.3109L10.515 98.9466L5.01338 100.345Z" fill="white"/>
<path d="M6.16487 104.288L6.03693 103.652L11.4105 101.999L11.5385 102.635L6.16487 104.288Z" fill="white"/>
<path d="M7.57222 108.102L7.44427 107.594L12.562 105.559L12.8179 106.195L7.57222 108.102Z" fill="white"/>
<path d="M9.23557 111.917L8.97968 111.281L14.0974 108.992L14.3533 109.628L9.23557 111.917Z" fill="white"/>
<path d="M11.0266 115.605L10.6428 114.969L15.6326 112.426L16.0164 113.061L11.0266 115.605Z" fill="white"/>
<path d="M15.121 122.598L14.7371 122.09L19.471 119.038L19.8549 119.546L15.121 122.598Z" fill="white"/>
<path d="M17.4239 125.905L17.04 125.396L21.646 122.09L21.9019 122.598L17.4239 125.905Z" fill="white"/>
<path d="M19.9828 129.084L19.471 128.702L23.949 125.142L24.3329 125.65L19.9828 129.084Z" fill="white"/>
<path d="M22.5416 132.263L22.1578 131.754L26.3799 128.066L26.7637 128.448L22.5416 132.263Z" fill="white"/>
<path d="M25.4844 135.187L24.9726 134.679L28.9388 130.737L29.4506 131.245L25.4844 135.187Z" fill="white"/>
<path d="M28.427 137.985L27.9152 137.476L31.7535 133.407L32.1374 133.789L28.427 137.985Z" fill="white"/>
<path d="M31.4977 140.528L30.9859 140.146L34.5683 135.823L35.0801 136.204L31.4977 140.528Z" fill="white"/>
<path d="M34.8242 143.071L34.3124 142.69L37.639 138.112L38.1507 138.493L34.8242 143.071Z" fill="white"/>
<path d="M38.1507 145.36L37.6389 144.979L40.7096 140.274L41.2213 140.655L38.1507 145.36Z" fill="white"/>
<path d="M45.3155 149.429L44.6758 149.048L47.2347 144.088L47.8744 144.47L45.3155 149.429Z" fill="white"/>
<path d="M49.0259 151.082L48.3862 150.828L50.6891 145.741L51.3289 145.996L49.0259 151.082Z" fill="white"/>
<path d="M52.7363 152.608L52.2245 152.481L54.1436 147.267L54.7834 147.394L52.7363 152.608Z" fill="white"/>
<path d="M56.7025 154.006L56.0628 153.752L57.7261 148.539L58.3658 148.666L56.7025 154.006Z" fill="white"/>
<path d="M60.5408 155.151L59.9011 155.024L61.4364 149.556L62.0761 149.811L60.5408 155.151Z" fill="white"/>
<path d="M64.507 156.041L63.8673 155.914L65.1467 150.446L65.6585 150.574L64.507 156.041Z" fill="white"/>
<path d="M68.6013 156.804L67.9615 156.677L68.8572 151.209L69.4969 151.336L68.6013 156.804Z" fill="white"/>
<path d="M72.6954 157.313L72.0557 157.186L72.5675 151.718H73.2072L72.6954 157.313Z" fill="white"/>
<path d="M76.7897 157.567H76.15L76.4058 151.972L77.0456 152.099L76.7897 157.567Z" fill="white"/>
<path d="M84.2104 157.567L83.9545 152.099L84.5942 151.972L84.8501 157.567H84.2104Z" fill="white"/>
<path d="M88.3046 157.313L87.7928 151.718H88.4325L88.9443 157.186L88.3046 157.313Z" fill="white"/>
<path d="M92.3988 156.804L91.5032 151.336L92.1429 151.209L93.0385 156.677L92.3988 156.804Z" fill="white"/>
<path d="M96.493 156.041L95.3415 150.574L95.8533 150.446L97.1327 155.914L96.493 156.041Z" fill="white"/>
<path d="M100.459 155.151L98.9238 149.811L99.5635 149.556L101.099 155.024L100.459 155.151Z" fill="white"/>
<path d="M104.297 154.006L102.634 148.666L103.274 148.539L104.937 153.752L104.297 154.006Z" fill="white"/>
<path d="M108.264 152.608L106.217 147.394L106.856 147.267L108.776 152.481L108.264 152.608Z" fill="white"/>
<path d="M111.974 151.082L109.671 145.996L110.311 145.741L112.614 150.828L111.974 151.082Z" fill="white"/>
<path d="M115.684 149.429L113.125 144.47L113.765 144.088L116.324 149.048L115.684 149.429Z" fill="white"/>
<path d="M122.849 145.36L119.779 140.655L120.29 140.274L123.361 144.979L122.849 145.36Z" fill="white"/>
<path d="M126.176 143.071L122.849 138.493L123.361 138.112L126.688 142.69L126.176 143.071Z" fill="white"/>
<path d="M129.502 140.528L125.92 136.204L126.432 135.823L130.014 140.146L129.502 140.528Z" fill="white"/>
<path d="M132.573 137.985L128.863 133.789L129.247 133.407L133.085 137.476L132.573 137.985Z" fill="white"/>
<path d="M135.516 135.187L131.549 131.245L132.061 130.737L136.027 134.679L135.516 135.187Z" fill="white"/>
<path d="M138.458 132.263L134.236 128.448L134.62 128.066L138.842 131.754L138.458 132.263Z" fill="white"/>
<path d="M141.017 129.084L136.667 125.65L137.051 125.142L141.529 128.702L141.017 129.084Z" fill="white"/>
<path d="M143.576 125.905L139.098 122.598L139.354 122.09L143.96 125.396L143.576 125.905Z" fill="white"/>
<path d="M145.879 122.598L141.145 119.546L141.529 119.038L146.263 122.09L145.879 122.598Z" fill="white"/>
<path d="M149.973 115.605L144.984 113.061L145.367 112.426L150.357 114.969L149.973 115.605Z" fill="white"/>
<path d="M151.765 111.917L146.647 109.628L146.903 108.992L152.02 111.281L151.765 111.917Z" fill="white"/>
<path d="M153.428 108.102L148.182 106.195L148.438 105.559L153.556 107.594L153.428 108.102Z" fill="white"/>
<path d="M154.835 104.288L149.462 102.635L149.589 101.999L154.963 103.652L154.835 104.288Z" fill="white"/>
<path d="M155.987 100.345L150.485 98.9466L150.741 98.3109L156.115 99.8368L155.987 100.345Z" fill="white"/>
<path d="M156.882 96.4037L151.381 95.2593L151.509 94.6235L157.01 95.7679L156.882 96.4037Z" fill="white"/>
<path d="M157.65 92.4621L152.148 91.572L152.276 90.9362L157.778 91.8263L157.65 92.4621Z" fill="white"/>
<path d="M158.29 88.3927L152.66 87.8841V87.2483L158.29 87.7569V88.3927Z" fill="white"/>
<path d="M158.546 84.3235L152.916 84.0692L153.044 83.4334L158.546 83.6877V84.3235Z" fill="white"/>
<path d="M153.044 76.5672L152.916 75.9314L158.546 75.5499V76.1857L153.044 76.5672Z" fill="white"/>
<path d="M152.66 72.7523V72.1165L158.29 71.4807V72.1165L152.66 72.7523Z" fill="white"/>
<path d="M152.276 69.0645L152.148 68.4287L157.65 67.5386L157.778 68.1744L152.276 69.0645Z" fill="white"/>
<path d="M151.509 65.2501L151.381 64.6143L156.882 63.4699L157.01 64.1057L151.509 65.2501Z" fill="white"/>
<path d="M150.741 61.5621L150.485 61.0534L155.987 59.5275L156.115 60.1633L150.741 61.5621Z" fill="white"/>
<path d="M149.589 58.0017L149.462 57.3659L154.835 55.7129L154.963 56.2215L149.589 58.0017Z" fill="white"/>
<path d="M148.438 54.4413L148.182 53.8055L153.428 51.771L153.556 52.4068L148.438 54.4413Z" fill="white"/>
<path d="M146.903 50.8806L146.647 50.372L151.765 48.0831L152.02 48.7189L146.903 50.8806Z" fill="white"/>
<path d="M145.367 47.5748L144.984 46.939L149.973 44.3958L150.357 45.0316L145.367 47.5748Z" fill="white"/>
<path d="M141.529 40.9623L141.145 40.4537L145.879 37.4019L146.263 37.9105L141.529 40.9623Z" fill="white"/>
<path d="M139.354 37.7832L139.098 37.2746L143.576 34.0956L143.96 34.6042L139.354 37.7832Z" fill="white"/>
<path d="M137.051 34.8589L136.667 34.3503L141.017 30.7898L141.529 31.2984L137.051 34.8589Z" fill="white"/>
<path d="M134.62 31.934L134.236 31.4254L138.458 27.7378L138.842 28.2464L134.62 31.934Z" fill="white"/>
<path d="M132.061 29.1367L131.549 28.7552L135.516 24.8133L136.027 25.1948L132.061 29.1367Z" fill="white"/>
<path d="M129.247 26.5933L128.863 26.2119L132.573 22.0156L133.085 22.3971L129.247 26.5933Z" fill="white"/>
<path d="M126.432 24.1775L125.92 23.6688L129.502 19.3454L130.014 19.7269L126.432 24.1775Z" fill="white"/>
<path d="M123.361 21.7613L122.849 21.3798L126.176 16.9293L126.688 17.3108L123.361 21.7613Z" fill="white"/>
<path d="M120.29 19.5999L119.779 19.3455L122.849 14.6407L123.361 15.0221L120.29 19.5999Z" fill="white"/>
<path d="M113.765 15.7848L113.125 15.5304L115.684 10.5712L116.324 10.8256L113.765 15.7848Z" fill="white"/>
<path d="M110.311 14.259L109.671 14.0047L111.974 8.7912L112.614 9.17267L110.311 14.259Z" fill="white"/>
<path d="M106.856 12.7335L106.217 12.4792L108.264 7.26571L108.776 7.52003L106.856 12.7335Z" fill="white"/>
<path d="M103.274 11.4618L102.634 11.3347L104.297 5.994L104.937 6.12116L103.274 11.4618Z" fill="white"/>
<path d="M99.5635 10.4446L98.9238 10.1902L100.459 4.84956L101.099 4.97673L99.5635 10.4446Z" fill="white"/>
<path d="M95.8533 9.42725L95.3415 9.30008L96.493 3.95942L97.1327 4.08657L95.8533 9.42725Z" fill="white"/>
<path d="M92.1429 8.79153L91.5032 8.66436L92.3988 3.19654L93.0385 3.3237L92.1429 8.79153Z" fill="white"/>
<path d="M88.4325 8.28269L87.7928 8.15554L88.3046 2.68771H88.9443L88.4325 8.28269Z" fill="white"/>
<path d="M84.5942 7.90138H83.9545L84.2104 2.3064L84.8501 2.43356L84.5942 7.90138Z" fill="white"/>
</svg>
