<svg width="25" height="25" viewBox="0 0 25 25" fill="none" xmlns="http://www.w3.org/2000/svg">
<path d="M12.6699 2.22314C8.26992 2.22314 4.66992 5.82314 4.66992 10.2231C4.66992 15.6231 11.6699 21.7231 11.9699 22.0231C12.1699 22.1231 12.4699 22.2231 12.6699 22.2231C12.8699 22.2231 13.1699 22.1231 13.3699 22.0231C13.6699 21.7231 20.6699 15.6231 20.6699 10.2231C20.6699 5.82314 17.0699 2.22314 12.6699 2.22314ZM12.6699 19.9231C10.5699 17.9231 6.66992 13.6231 6.66992 10.2231C6.66992 6.92314 9.36992 4.22314 12.6699 4.22314C15.9699 4.22314 18.6699 6.92314 18.6699 10.2231C18.6699 13.5231 14.7699 17.9231 12.6699 19.9231ZM12.6699 6.22314C10.4699 6.22314 8.66992 8.02314 8.66992 10.2231C8.66992 12.4231 10.4699 14.2231 12.6699 14.2231C14.8699 14.2231 16.6699 12.4231 16.6699 10.2231C16.6699 8.02314 14.8699 6.22314 12.6699 6.22314ZM12.6699 12.2231C11.5699 12.2231 10.6699 11.3231 10.6699 10.2231C10.6699 9.12314 11.5699 8.22314 12.6699 8.22314C13.7699 8.22314 14.6699 9.12314 14.6699 10.2231C14.6699 11.3231 13.7699 12.2231 12.6699 12.2231Z" fill="#21262C"/>
</svg>
