<svg width="147" height="146" viewBox="0 0 147 146" fill="none" xmlns="http://www.w3.org/2000/svg">
<path d="M0.945801 50.7395C0.945801 33.1184 0.945761 24.2876 4.362 17.5728C7.37154 11.6313 12.1706 6.82925 18.1083 3.8178C24.8188 0.3994 33.644 0.399414 51.2539 0.399414H95.7463C113.356 0.399414 122.181 0.3994 128.892 3.8178C134.83 6.82925 139.629 11.6313 142.638 17.5728C146.054 24.2876 146.054 33.1184 146.054 50.7395V95.2601C146.054 112.881 146.054 121.712 142.638 128.427C139.629 134.368 134.83 139.17 128.892 142.182C122.181 145.6 113.356 145.6 95.7463 145.6H51.2539C33.644 145.6 24.8188 145.6 18.1083 142.182C12.1706 139.17 7.37154 134.368 4.362 128.427C0.945761 121.712 0.945801 112.881 0.945801 95.2601V50.7395Z" fill="#21262C"/>
<path d="M41.3929 89.4127C39.0888 89.4127 37.0088 88.8847 35.1528 87.8287C33.3288 86.7727 31.8728 85.3166 30.7847 83.4606C29.7287 81.5726 29.2007 79.3966 29.2007 76.9325C29.2007 74.4685 29.7447 72.3085 30.8327 70.4525C31.9208 68.5644 33.3768 67.0924 35.2008 66.0364C37.0568 64.9804 39.1368 64.4524 41.4409 64.4524C43.7129 64.4524 45.7609 64.9804 47.585 66.0364C49.441 67.0924 50.897 68.5644 51.953 70.4525C53.041 72.3085 53.585 74.4685 53.585 76.9325C53.585 79.3966 53.041 81.5726 51.953 83.4606C50.897 85.3166 49.441 86.7727 47.585 87.8287C45.7289 88.8847 43.6649 89.4127 41.3929 89.4127ZM41.3929 84.0846C42.9929 84.0846 44.3849 83.4926 45.5689 82.3086C46.753 81.0926 47.345 79.3006 47.345 76.9325C47.345 74.5645 46.753 72.7885 45.5689 71.6045C44.3849 70.3885 43.0089 69.7804 41.4409 69.7804C39.8089 69.7804 38.4008 70.3885 37.2168 71.6045C36.0648 72.7885 35.4888 74.5645 35.4888 76.9325C35.4888 79.3006 36.0648 81.0926 37.2168 82.3086C38.4008 83.4926 39.7929 84.0846 41.3929 84.0846Z" fill="white"/>
<path d="M57.1585 88.8367V65.0284H62.5825L63.0625 69.0604C63.7985 67.6524 64.8546 66.5324 66.2306 65.7004C67.6386 64.8684 69.2866 64.4524 71.1746 64.4524C74.1187 64.4524 76.4067 65.3804 78.0387 67.2364C79.6707 69.0924 80.4868 71.8125 80.4868 75.3965V88.8367H74.3427V75.9725C74.3427 73.9245 73.9267 72.3565 73.0947 71.2685C72.2627 70.1805 70.9666 69.6365 69.2066 69.6365C67.4786 69.6365 66.0546 70.2444 64.9346 71.4605C63.8465 72.6765 63.3025 74.3725 63.3025 76.5485V88.8367H57.1585Z" fill="white"/>
<path d="M84.1424 88.8368V54.2764H90.2865V88.8368H84.1424Z" fill="white"/>
<path d="M99.2746 99.397L104.795 87.2528H103.355L93.4178 66.6526H100.09L107.435 81.7807L118.88 52.0687H125.408L105.803 99.397H99.2746Z" fill="white"/>
<path d="M99.2746 99.397L104.795 87.2528H103.355L93.4178 66.6526H100.09L107.435 81.7807L118.88 52.0687H125.408L105.803 99.397H99.2746Z" fill="#4F55DA"/>
<path d="M110.828 87.2742L104.762 87.2638L99.2583 99.3976L105.782 99.4216L110.828 87.2742Z" fill="white"/>
</svg>
