<svg width="24" height="25" viewBox="0 0 24 25" fill="none" xmlns="http://www.w3.org/2000/svg">
<path d="M12 4.13867C11.4477 4.13867 11 4.58639 11 5.13867C11 6.83093 8.95399 7.67841 7.75738 6.48181C7.36686 6.09128 6.73369 6.09128 6.34317 6.48181C5.95265 6.87233 5.95265 7.5055 6.34317 7.89602C7.53982 9.09267 6.69223 11.1387 5 11.1387C4.44772 11.1387 4 11.5864 4 12.1387C4 12.691 4.44772 13.1387 5 13.1387C6.69236 13.1387 7.53964 15.1848 6.34311 16.3813C5.95258 16.7718 5.95258 17.405 6.34311 17.7955C6.73363 18.1861 7.3668 18.1861 7.75732 17.7955C8.9539 16.5989 11 17.4463 11 19.1387C11 19.691 11.4477 20.1387 12 20.1387C12.5523 20.1387 13 19.691 13 19.1387C13 17.4464 15.046 16.5989 16.2427 17.7955C16.6332 18.186 17.2664 18.186 17.6569 17.7955C18.0474 17.405 18.0474 16.7718 17.6569 16.3813C16.4603 15.1847 17.3077 13.1387 19 13.1387C19.5523 13.1387 20 12.691 20 12.1387C20 11.5864 19.5523 11.1387 19 11.1387C17.3078 11.1387 16.4601 9.09272 17.6568 7.89604C18.0473 7.50551 18.0473 6.87235 17.6568 6.48183C17.2663 6.0913 16.6331 6.0913 16.2426 6.48182C15.046 7.67846 13 6.83086 13 5.13867C13 4.58639 12.5523 4.13867 12 4.13867ZM9.00816 4.9157C9.12224 3.36297 10.4181 2.13867 12 2.13867C13.5819 2.13867 14.8778 3.36297 14.9918 4.9157C16.1704 3.89844 17.9525 3.94908 19.071 5.06761C20.1896 6.18616 20.2402 7.96822 19.2229 9.14683C20.7757 9.26088 22 10.5568 22 12.1387C22 13.7205 20.7757 15.0164 19.223 15.1305C20.2403 16.3091 20.1896 18.0912 19.0711 19.2097C17.9525 20.3283 16.1705 20.3789 14.9918 19.3616C14.8778 20.9143 13.5819 22.1387 12 22.1387C10.4181 22.1387 9.12221 20.9143 9.00816 19.3616C7.82955 20.3789 6.04745 20.3283 4.92889 19.2097C3.81034 18.0912 3.75972 16.3091 4.77702 15.1305C3.2243 15.0164 2 13.7205 2 12.1387C2 10.5568 3.22433 9.26088 4.77709 9.14683C3.75978 7.96822 3.81041 6.18614 4.92896 5.06759C6.0475 3.94905 7.82955 3.89842 9.00816 4.9157Z" fill="#21262C"/>
<path d="M12 10.1387C11.4696 10.1387 10.9609 10.3494 10.5858 10.7245C10.2107 11.0995 10 11.6082 10 12.1387C10 12.6691 10.2107 13.1778 10.5858 13.5529C10.9609 13.928 11.4696 14.1387 12 14.1387C12.5304 14.1387 13.0391 13.928 13.4142 13.5529C13.7893 13.1778 14 12.6691 14 12.1387C14 11.6082 13.7893 11.0995 13.4142 10.7245C13.0391 10.3494 12.5304 10.1387 12 10.1387ZM9.17157 9.31024C9.92172 8.5601 10.9391 8.13867 12 8.13867C13.0609 8.13867 14.0783 8.5601 14.8284 9.31024C15.5786 10.0604 16 11.0778 16 12.1387C16 13.1995 15.5786 14.217 14.8284 14.9671C14.0783 15.7172 13.0609 16.1387 12 16.1387C10.9391 16.1387 9.92172 15.7172 9.17157 14.9671C8.42143 14.217 8 13.1995 8 12.1387C8 11.0778 8.42143 10.0604 9.17157 9.31024Z" fill="#21262C"/>
</svg>
