<svg width="24" height="25" viewBox="0 0 24 25" fill="none" xmlns="http://www.w3.org/2000/svg">
<path d="M12 2.17969C12.5523 2.17969 13 2.6274 13 3.17969V4.17969C13 4.73197 12.5523 5.17969 12 5.17969C11.4477 5.17969 11 4.73197 11 4.17969V3.17969C11 2.6274 11.4477 2.17969 12 2.17969ZM19.0711 5.10861C19.4616 5.49914 19.4616 6.1323 19.0711 6.52283L18.364 7.22993C17.9735 7.62046 17.3403 7.62046 16.9498 7.22993C16.5593 6.83941 16.5593 6.20624 16.9498 5.81572L17.6569 5.10861C18.0474 4.71809 18.6806 4.71809 19.0711 5.10861ZM4.92893 5.10861C5.31945 4.71809 5.95262 4.71809 6.34314 5.10861L7.05025 5.81572C7.44077 6.20624 7.44077 6.83941 7.05025 7.22993C6.65972 7.62046 6.02656 7.62046 5.63603 7.22993L4.92893 6.52283C4.5384 6.1323 4.5384 5.49914 4.92893 5.10861ZM12 8.17969C9.79086 8.17969 8 9.97055 8 12.1797C8 14.3888 9.79086 16.1797 12 16.1797C14.2091 16.1797 16 14.3888 16 12.1797C16 9.97055 14.2091 8.17969 12 8.17969ZM6 12.1797C6 8.86598 8.68629 6.17969 12 6.17969C15.3137 6.17969 18 8.86598 18 12.1797C18 15.4934 15.3137 18.1797 12 18.1797C8.68629 18.1797 6 15.4934 6 12.1797ZM2 12.1797C2 11.6274 2.44772 11.1797 3 11.1797H4C4.55228 11.1797 5 11.6274 5 12.1797C5 12.732 4.55228 13.1797 4 13.1797H3C2.44772 13.1797 2 12.732 2 12.1797ZM19 12.1797C19 11.6274 19.4477 11.1797 20 11.1797H21C21.5523 11.1797 22 11.6274 22 12.1797C22 12.732 21.5523 13.1797 21 13.1797H20C19.4477 13.1797 19 12.732 19 12.1797ZM5.63603 17.1294C6.02656 16.7389 6.65972 16.7389 7.05025 17.1294C7.44077 17.5199 7.44077 18.1531 7.05025 18.5436L6.34314 19.2507C5.95262 19.6413 5.31945 19.6413 4.92893 19.2507C4.5384 18.8602 4.5384 18.2271 4.92893 17.8365L5.63603 17.1294ZM16.9498 18.5436C16.5593 18.1531 16.5593 17.52 16.9498 17.1294C17.3403 16.7389 17.9735 16.7389 18.364 17.1294L19.0711 17.8365C19.4616 18.2271 19.4616 18.8602 19.0711 19.2507C18.6806 19.6413 18.0474 19.6413 17.6569 19.2507L16.9498 18.5436ZM12 19.1797C12.5523 19.1797 13 19.6274 13 20.1797V21.1797C13 21.732 12.5523 22.1797 12 22.1797C11.4477 22.1797 11 21.732 11 21.1797V20.1797C11 19.6274 11.4477 19.1797 12 19.1797Z" fill="#21262C"/>
</svg>
