<svg width="18" height="18" viewBox="0 0 18 18" fill="none" xmlns="http://www.w3.org/2000/svg">
<path d="M14.25 12.75H9C8.17275 12.75 7.5 13.4227 7.5 14.25C7.5 15.0773 8.17275 15.75 9 15.75H14.25C15.0773 15.75 15.75 15.0773 15.75 14.25C15.75 13.4227 15.0773 12.75 14.25 12.75ZM14.25 7.5H9C8.17275 7.5 7.5 8.17275 7.5 9C7.5 9.82725 8.17275 10.5 9 10.5H14.25C15.0773 10.5 15.75 9.82725 15.75 9C15.75 8.17275 15.0773 7.5 14.25 7.5ZM14.25 2.25H9C8.17275 2.25 7.5 2.92275 7.5 3.75C7.5 4.57725 8.17275 5.25 9 5.25H14.25C15.0773 5.25 15.75 4.57725 15.75 3.75C15.75 2.92275 15.0773 2.25 14.25 2.25Z" fill="#1E1E1E"/>
<path d="M3.75 16.125C4.78553 16.125 5.625 15.2855 5.625 14.25C5.625 13.2145 4.78553 12.375 3.75 12.375C2.71447 12.375 1.875 13.2145 1.875 14.25C1.875 15.2855 2.71447 16.125 3.75 16.125Z" fill="#1E1E1E"/>
<path d="M3.75 10.875C4.78553 10.875 5.625 10.0355 5.625 9C5.625 7.96447 4.78553 7.125 3.75 7.125C2.71447 7.125 1.875 7.96447 1.875 9C1.875 10.0355 2.71447 10.875 3.75 10.875Z" fill="#1E1E1E"/>
<path d="M3.75 5.625C4.78553 5.625 5.625 4.78553 5.625 3.75C5.625 2.71447 4.78553 1.875 3.75 1.875C2.71447 1.875 1.875 2.71447 1.875 3.75C1.875 4.78553 2.71447 5.625 3.75 5.625Z" fill="#1E1E1E"/>
</svg>
